<svg width="40" height="40" viewBox="0 0 40 40" fill="none" xmlns="http://www.w3.org/2000/svg">
<circle cx="20" cy="20" r="20" fill="#EBEEFF"/>
<path d="M15 28.3337V13.3337C15 12.8916 15.1756 12.4677 15.4882 12.1551C15.8007 11.8426 16.2246 11.667 16.6667 11.667H23.3333C23.7754 11.667 24.1993 11.8426 24.5118 12.1551C24.8244 12.4677 25 12.8916 25 13.3337V28.3337H15Z" stroke="#3D5EFF" stroke-width="1.66667" stroke-linecap="round" stroke-linejoin="round"/>
<path d="M14.9993 20H13.3327C12.8907 20 12.4667 20.1756 12.1542 20.4882C11.8416 20.8007 11.666 21.2246 11.666 21.6667V26.6667C11.666 27.1087 11.8416 27.5326 12.1542 27.8452C12.4667 28.1577 12.8907 28.3333 13.3327 28.3333H14.9993" stroke="#3D5EFF" stroke-width="1.66667" stroke-linecap="round" stroke-linejoin="round"/>
<path d="M25 17.5H26.6667C27.1087 17.5 27.5326 17.6756 27.8452 17.9882C28.1577 18.3007 28.3333 18.7246 28.3333 19.1667V26.6667C28.3333 27.1087 28.1577 27.5326 27.8452 27.8452C27.5326 28.1577 27.1087 28.3333 26.6667 28.3333H25" stroke="#3D5EFF" stroke-width="1.66667" stroke-linecap="round" stroke-linejoin="round"/>
<path d="M18.334 15H21.6673" stroke="#3D5EFF" stroke-width="1.66667" stroke-linecap="round" stroke-linejoin="round"/>
<path d="M18.334 18.333H21.6673" stroke="#3D5EFF" stroke-width="1.66667" stroke-linecap="round" stroke-linejoin="round"/>
<path d="M18.334 21.667H21.6673" stroke="#3D5EFF" stroke-width="1.66667" stroke-linecap="round" stroke-linejoin="round"/>
<path d="M18.334 25H21.6673" stroke="#3D5EFF" stroke-width="1.66667" stroke-linecap="round" stroke-linejoin="round"/>
</svg>
