<svg width="40" height="40" viewBox="0 0 40 40" fill="none" xmlns="http://www.w3.org/2000/svg">
<circle cx="20" cy="20" r="20" fill="#EBEEFF"/>
<path d="M23.3327 27.5V25.8333C23.3327 24.9493 22.9815 24.1014 22.3564 23.4763C21.7313 22.8512 20.8834 22.5 19.9993 22.5H14.9993C14.1153 22.5 13.2674 22.8512 12.6423 23.4763C12.0172 24.1014 11.666 24.9493 11.666 25.8333V27.5" stroke="#3D5EFF" stroke-width="1.66667" stroke-linecap="round" stroke-linejoin="round"/>
<path d="M17.4993 19.1667C19.3403 19.1667 20.8327 17.6743 20.8327 15.8333C20.8327 13.9924 19.3403 12.5 17.4993 12.5C15.6584 12.5 14.166 13.9924 14.166 15.8333C14.166 17.6743 15.6584 19.1667 17.4993 19.1667Z" stroke="#3D5EFF" stroke-width="1.66667" stroke-linecap="round" stroke-linejoin="round"/>
<path d="M28.334 27.4996V25.8329C28.3334 25.0944 28.0876 24.3769 27.6351 23.7932C27.1826 23.2095 26.5491 22.7926 25.834 22.6079" stroke="#3D5EFF" stroke-width="1.66667" stroke-linecap="round" stroke-linejoin="round"/>
<path d="M23.334 12.6079C24.051 12.7915 24.6865 13.2085 25.1404 13.7932C25.5942 14.3778 25.8405 15.0969 25.8405 15.8371C25.8405 16.5772 25.5942 17.2963 25.1404 17.881C24.6865 18.4657 24.051 18.8827 23.334 19.0662" stroke="#3D5EFF" stroke-width="1.66667" stroke-linecap="round" stroke-linejoin="round"/>
</svg>
