<svg width="41" height="41" viewBox="0 0 41 41" fill="none" xmlns="http://www.w3.org/2000/svg">
<circle cx="20.0467" cy="20.0467" r="20.0467" fill="#EBEEFF"/>
<path d="M29.4167 24.5834C29.3777 24.9814 29.2367 25.3624 29.0067 25.6884C28.7883 26.0046 28.4963 26.2629 28.1559 26.4411C27.8155 26.6193 27.4369 26.7121 27.0527 26.7114H24.0567C24.006 26.9814 23.931 27.2441 23.8317 27.4994C23.6252 28.0028 23.323 28.4613 22.9417 28.8494C22.5561 29.2364 22.0971 29.5423 21.5917 29.7494C21.1101 29.9424 20.5955 30.0399 20.0767 30.0364H19.9647C19.4335 30.0371 18.9077 29.9292 18.4197 29.7194C17.9219 29.5134 17.4697 29.2113 17.0888 28.8303C16.7078 28.4494 16.4057 27.9972 16.1997 27.4994C16.0949 27.2462 16.0194 26.9818 15.9747 26.7114H13.0787C12.7018 26.7407 12.3235 26.6766 11.9773 26.5249C11.631 26.3731 11.3276 26.1384 11.0937 25.8414C10.8695 25.4816 10.73 25.0755 10.6856 24.6539C10.6413 24.2322 10.6933 23.806 10.8377 23.4074C11.0587 22.8154 11.3617 22.2574 11.7377 21.7494C12.1663 21.2281 12.4523 20.6044 12.5677 19.9394C12.5677 16.9724 12.5677 15.9794 14.1837 14.0564C14.7165 13.4196 15.3789 12.9035 16.1267 12.5424L16.9357 12.1544C16.9701 12.1356 16.9983 12.1071 17.0167 12.0724C17.0538 12.0366 17.079 11.9901 17.0887 11.9394C17.21 11.2583 17.5733 10.6439 18.1117 10.2094C18.2446 10.1104 18.4059 10.0569 18.5717 10.0569C18.7374 10.0569 18.8987 10.1104 19.0317 10.2094C19.1678 10.3059 19.2698 10.4431 19.3231 10.6012C19.3765 10.7593 19.3784 10.9302 19.3287 11.0894C19.3287 11.0894 18.1427 14.7934 20.3517 17.0334C22.5617 19.2734 26.2547 17.1664 26.2957 17.1464C26.4105 17.0793 26.5411 17.0439 26.6742 17.0439C26.8072 17.0439 26.9378 17.0793 27.0527 17.1464C27.1676 17.213 27.263 17.3085 27.3295 17.4234C27.396 17.5383 27.4312 17.6687 27.4317 17.8014V19.9804C27.5697 20.6904 27.8827 21.3544 28.3417 21.9134C28.7077 22.4034 29.0067 22.9404 29.2317 23.5094C29.3817 23.8464 29.4447 24.2164 29.4157 24.5834" fill="#3D5EFF"/>
<path d="M23.3497 16.1434C24.0876 16.1434 24.7952 15.8503 25.3169 15.3285C25.8386 14.8068 26.1317 14.0992 26.1317 13.3614C26.1317 12.6235 25.8386 11.9159 25.3169 11.3942C24.7952 10.8725 24.0876 10.5794 23.3497 10.5794C22.6119 10.5794 21.9043 10.8725 21.3826 11.3942C20.8609 11.9159 20.5677 12.6235 20.5677 13.3614C20.5677 14.0992 20.8609 14.8068 21.3826 15.3285C21.9043 15.8503 22.6119 16.1434 23.3497 16.1434Z" fill="#3D5EFF"/>
</svg>
