<svg width="41" height="41" viewBox="0 0 41 41" fill="none" xmlns="http://www.w3.org/2000/svg">
<circle cx="20.0467" cy="20.0467" r="20.0467" fill="#EBEEFF"/>
<path d="M10.1216 20.0044C10.1216 25.5274 14.5986 30.0044 20.1216 30.0044C25.6446 30.0044 30.1216 25.5274 30.1216 20.0044C30.1216 14.4814 25.6446 10.0044 20.1216 10.0044C14.5986 10.0044 10.1216 14.4814 10.1216 20.0044ZM28.1216 20.0044C28.1216 22.1261 27.2787 24.161 25.7784 25.6612C24.2781 27.1615 22.2433 28.0044 20.1216 28.0044C17.9999 28.0044 15.965 27.1615 14.4647 25.6612C12.9644 24.161 12.1216 22.1261 12.1216 20.0044C12.1216 17.8827 12.9644 15.8478 14.4647 14.3475C15.965 12.8472 17.9999 12.0044 20.1216 12.0044C22.2433 12.0044 24.2781 12.8472 25.7784 14.3475C27.2787 15.8478 28.1216 17.8827 28.1216 20.0044ZM26.1216 20.0044C26.1215 20.991 25.878 21.9624 25.4128 22.8326C24.9477 23.7027 24.2751 24.4446 23.4547 24.9927C22.6343 25.5408 21.6913 25.8781 20.7094 25.9748C19.7275 26.0715 18.7369 25.9245 17.8254 25.5469C16.9138 25.1693 16.1095 24.5728 15.4836 23.8101C14.8576 23.0474 14.4294 22.1421 14.2369 21.1744C14.0444 20.2067 14.0935 19.2065 14.3798 18.2623C14.6662 17.3181 15.181 16.4591 15.8786 15.7614L20.1216 20.0044V14.0044C21.7129 14.0044 23.239 14.6365 24.3642 15.7618C25.4894 16.887 26.1216 18.4131 26.1216 20.0044Z" fill="#3D5EFF"/>
</svg>
