<svg width="41" height="41" viewBox="0 0 41 41" fill="none" xmlns="http://www.w3.org/2000/svg">
<circle cx="20.0467" cy="20.0467" r="20.0467" fill="#EBEEFF"/>
<path fill-rule="evenodd" clip-rule="evenodd" d="M20.0979 9.67188H19.9939C19.0949 9.67188 18.3459 9.67188 17.7519 9.75188C17.1239 9.83588 16.5569 10.0219 16.1019 10.4769C15.6459 10.9329 15.4599 11.4999 15.3759 12.1269C15.3189 12.5539 15.3019 13.5729 15.2979 14.4469C13.2759 14.5139 12.0609 14.7499 11.2179 15.5939C10.0459 16.7649 10.0459 18.6509 10.0459 22.4219C10.0459 26.1929 10.0459 28.0789 11.2179 29.2499C12.3899 30.4209 14.2749 30.4219 18.0459 30.4219H22.0459C25.8169 30.4219 27.7029 30.4219 28.8739 29.2499C30.0449 28.0779 30.0459 26.1929 30.0459 22.4219C30.0459 18.6509 30.0459 16.7649 28.8739 15.5939C28.0309 14.7499 26.8159 14.5139 24.7939 14.4479C24.7899 13.5729 24.7739 12.5539 24.7159 12.1279C24.6319 11.4999 24.4459 10.9329 23.9899 10.4779C23.5349 10.0219 22.9679 9.83588 22.3399 9.75188C21.7459 9.67188 20.9959 9.67188 20.0979 9.67188ZM23.2939 14.4239C23.2889 13.5769 23.2749 12.6659 23.2299 12.3269C23.1669 11.8659 23.0599 11.6679 22.9299 11.5379C22.7999 11.4079 22.6019 11.3009 22.1399 11.2379C21.6579 11.1739 21.0099 11.1719 20.0459 11.1719C19.0819 11.1719 18.4339 11.1739 17.9509 11.2389C17.4899 11.3009 17.2919 11.4079 17.1619 11.5389C17.0319 11.6699 16.9249 11.8659 16.8619 12.3269C16.8169 12.6669 16.8019 13.5769 16.7979 14.4239C17.1899 14.4219 17.6059 14.4212 18.0459 14.4219H22.0459C22.4872 14.4219 22.9032 14.4225 23.2939 14.4239ZM20.0459 17.6719C20.2448 17.6719 20.4356 17.7509 20.5762 17.8915C20.7169 18.0322 20.7959 18.223 20.7959 18.4219V18.4319C21.8849 18.7059 22.7959 19.5649 22.7959 20.7549C22.7959 20.9538 22.7169 21.1446 22.5762 21.2852C22.4356 21.4259 22.2448 21.5049 22.0459 21.5049C21.847 21.5049 21.6562 21.4259 21.5156 21.2852C21.3749 21.1446 21.2959 20.9538 21.2959 20.7549C21.2959 20.3709 20.8699 19.8389 20.0459 19.8389C19.2219 19.8389 18.7959 20.3709 18.7959 20.7549C18.7959 21.1389 19.2219 21.6719 20.0459 21.6719C21.4309 21.6719 22.7959 22.6319 22.7959 24.0889C22.7959 25.2789 21.8849 26.1369 20.7959 26.4119V26.4219C20.7959 26.6208 20.7169 26.8116 20.5762 26.9522C20.4356 27.0929 20.2448 27.1719 20.0459 27.1719C19.847 27.1719 19.6562 27.0929 19.5156 26.9522C19.3749 26.8116 19.2959 26.6208 19.2959 26.4219V26.4119C18.2069 26.1379 17.2959 25.2789 17.2959 24.0889C17.2959 23.89 17.3749 23.6992 17.5156 23.5585C17.6562 23.4179 17.847 23.3389 18.0459 23.3389C18.2448 23.3389 18.4356 23.4179 18.5762 23.5585C18.7169 23.6992 18.7959 23.89 18.7959 24.0889C18.7959 24.4729 19.2219 25.0049 20.0459 25.0049C20.8699 25.0049 21.2959 24.4729 21.2959 24.0889C21.2959 23.7049 20.8699 23.1719 20.0459 23.1719C18.6609 23.1719 17.2959 22.2119 17.2959 20.7549C17.2959 19.5649 18.2069 18.7059 19.2959 18.4319V18.4219C19.2959 18.223 19.3749 18.0322 19.5156 17.8915C19.6562 17.7509 19.847 17.6719 20.0459 17.6719Z" fill="#3D5EFF"/>
</svg>
