<svg width="41" height="41" viewBox="0 0 41 41" fill="none" xmlns="http://www.w3.org/2000/svg">
<circle cx="20.0467" cy="20.0467" r="20.0467" fill="#EBEEFF"/>
<path d="M12.0464 28.0464C11.4964 28.0464 11.0257 27.8507 10.6344 27.4594C10.2431 27.0681 10.0471 26.5971 10.0464 26.0464V14.0464C10.0464 13.4964 10.2424 13.0257 10.6344 12.6344C11.0264 12.2431 11.4971 12.0471 12.0464 12.0464H18.0464L20.0464 14.0464H28.0464C28.5964 14.0464 29.0674 14.2424 29.4594 14.6344C29.8514 15.0264 30.0471 15.4971 30.0464 16.0464V26.0464C30.0464 26.5964 29.8507 27.0674 29.4594 27.4594C29.0681 27.8514 28.5971 28.0471 28.0464 28.0464H12.0464Z" fill="#3D5EFF"/>
</svg>
