<svg width="40" height="40" viewBox="0 0 40 40" fill="none" xmlns="http://www.w3.org/2000/svg">
<circle cx="20" cy="20" r="20" fill="#EBEEFF"/>
<path d="M19.6031 11.9127C19.6396 11.839 19.696 11.7768 19.7659 11.7334C19.8359 11.69 19.9166 11.667 19.9989 11.667C20.0812 11.667 20.1619 11.69 20.2319 11.7334C20.3018 11.7768 20.3582 11.839 20.3947 11.9127L22.3197 15.8119C22.4465 16.0685 22.6337 16.2906 22.8653 16.4589C23.0968 16.6273 23.3657 16.737 23.6489 16.7786L27.9539 17.4086C28.0355 17.4204 28.1121 17.4548 28.1751 17.5079C28.2382 17.561 28.2851 17.6307 28.3106 17.7091C28.3361 17.7875 28.3391 17.8714 28.3194 17.9514C28.2996 18.0315 28.2579 18.1044 28.1989 18.1619L25.0856 21.1936C24.8802 21.3937 24.7266 21.6406 24.6379 21.9133C24.5492 22.1859 24.5281 22.476 24.5764 22.7586L25.3114 27.0419C25.3258 27.1234 25.317 27.2074 25.286 27.2841C25.255 27.3609 25.203 27.4274 25.136 27.4761C25.069 27.5247 24.9897 27.5536 24.9071 27.5593C24.8245 27.5651 24.742 27.5475 24.6689 27.5086L20.8206 25.4852C20.567 25.3521 20.2849 25.2825 19.9985 25.2825C19.7121 25.2825 19.43 25.3521 19.1764 25.4852L15.3289 27.5086C15.2558 27.5472 15.1734 27.5646 15.0909 27.5588C15.0085 27.5529 14.9293 27.524 14.8625 27.4754C14.7956 27.4268 14.7438 27.3604 14.7128 27.2838C14.6818 27.2071 14.6729 27.1233 14.6872 27.0419L15.4214 22.7594C15.4699 22.4767 15.4489 22.1864 15.3602 21.9136C15.2715 21.6408 15.1177 21.3937 14.9122 21.1936L11.7989 18.1627C11.7394 18.1053 11.6972 18.0322 11.6772 17.952C11.6572 17.8717 11.6601 17.7874 11.6856 17.7087C11.7112 17.63 11.7583 17.5601 11.8216 17.5069C11.885 17.4537 11.962 17.4193 12.0439 17.4077L16.3481 16.7786C16.6316 16.7373 16.9009 16.6278 17.1327 16.4594C17.3645 16.291 17.552 16.0688 17.6789 15.8119L19.6031 11.9127Z" stroke="#3D5EFF" stroke-width="1.66667" stroke-linecap="round" stroke-linejoin="round"/>
</svg>
