<svg width="40" height="40" viewBox="0 0 40 40" fill="none" xmlns="http://www.w3.org/2000/svg">
<circle cx="20" cy="20" r="20" fill="#EBEEFF"/>
<path d="M28.1669 18.3336C28.5474 20.2013 28.2762 22.1431 27.3984 23.8351C26.5206 25.527 25.0893 26.8669 23.3431 27.6313C21.597 28.3957 19.6415 28.5384 17.8029 28.0355C15.9643 27.5327 14.3537 26.4147 13.2396 24.8681C12.1255 23.3214 11.5753 21.4396 11.6807 19.5364C11.7862 17.6332 12.5409 15.8236 13.8191 14.4095C15.0972 12.9954 16.8215 12.0623 18.7044 11.7656C20.5873 11.469 22.515 11.8268 24.166 12.7794" stroke="#3D5EFF" stroke-width="1.66667" stroke-linecap="round" stroke-linejoin="round"/>
<path d="M17.5 19.1663L20 21.6663L28.3333 13.333" stroke="#3D5EFF" stroke-width="1.66667" stroke-linecap="round" stroke-linejoin="round"/>
</svg>
