<svg width="22" height="27" viewBox="0 0 22 27" fill="none" xmlns="http://www.w3.org/2000/svg">
<path d="M19.75 1H2.25C1.91848 1 1.60054 1.1317 1.36612 1.36612C1.1317 1.60054 1 1.91848 1 2.25V24.75C1 25.0815 1.1317 25.3995 1.36612 25.6339C1.60054 25.8683 1.91848 26 2.25 26H19.75C20.0815 26 20.3995 25.8683 20.6339 25.6339C20.8683 25.3995 21 25.0815 21 24.75V2.25C21 1.91848 20.8683 1.60054 20.6339 1.36612C20.3995 1.1317 20.0815 1 19.75 1Z" stroke="black" stroke-width="2" stroke-linecap="round" stroke-linejoin="round"/>
<path d="M14.75 12.875L12.5844 10.7094M12.5844 10.7094C12.8806 10.4205 13.1165 10.0758 13.2784 9.69505C13.4403 9.31434 13.525 8.90527 13.5276 8.49156C13.5302 8.07786 13.4506 7.66776 13.2935 7.28505C13.1364 6.90234 12.9048 6.55464 12.6122 6.26212C12.3197 5.9696 11.9719 5.73809 11.5892 5.581C11.2065 5.42392 10.7964 5.3444 10.3827 5.34705C9.96896 5.3497 9.5599 5.43447 9.17921 5.59644C8.79853 5.75842 8.45379 5.99437 8.165 6.29061C7.58327 6.87762 7.25775 7.67117 7.25968 8.4976C7.26161 9.32403 7.59082 10.116 8.17528 10.7003C8.75973 11.2846 9.55184 11.6136 10.3783 11.6153C11.2047 11.617 11.9975 11.2913 12.5844 10.7094ZM6.625 17.25H15.375M6.625 21H11" stroke="black" stroke-width="2" stroke-linecap="round" stroke-linejoin="round"/>
</svg>
