<svg width="41" height="41" viewBox="0 0 41 41" fill="none" xmlns="http://www.w3.org/2000/svg">
<circle cx="20.0467" cy="20.0467" r="20.0467" fill="#EBEEFF"/>
<path d="M23.1211 10.5044H14.1211C13.5907 10.5044 13.082 10.7151 12.7069 11.0902C12.3318 11.4653 12.1211 11.974 12.1211 12.5044V28.5044C12.1211 29.0348 12.3318 29.5435 12.7069 29.9186C13.082 30.2937 13.5907 30.5044 14.1211 30.5044H26.1211C26.6515 30.5044 27.1602 30.2937 27.5353 29.9186C27.9104 29.5435 28.1211 29.0348 28.1211 28.5044V15.5044L23.1211 10.5044Z" stroke="#3D5EFF" stroke-width="2" stroke-linecap="round" stroke-linejoin="round"/>
<path d="M22.1211 10.5044V14.5044C22.1211 15.0348 22.3318 15.5435 22.7069 15.9186C23.082 16.2937 23.5907 16.5044 24.1211 16.5044H28.1211" stroke="#3D5EFF" stroke-width="2" stroke-linecap="round" stroke-linejoin="round"/>
<path d="M18.1211 17.5044H16.1211" stroke="#3D5EFF" stroke-width="2" stroke-linecap="round" stroke-linejoin="round"/>
<path d="M24.1211 21.5044H16.1211" stroke="#3D5EFF" stroke-width="2" stroke-linecap="round" stroke-linejoin="round"/>
<path d="M24.1211 25.5044H16.1211" stroke="#3D5EFF" stroke-width="2" stroke-linecap="round" stroke-linejoin="round"/>
</svg>
