<svg width="41" height="41" viewBox="0 0 41 41" fill="none" xmlns="http://www.w3.org/2000/svg">
<path d="M15.3753 37.5837H25.6253C34.167 37.5837 37.5837 34.167 37.5837 25.6253V15.3753C37.5837 6.83366 34.167 3.41699 25.6253 3.41699H15.3753C6.83366 3.41699 3.41699 6.83366 3.41699 15.3753V25.6253C3.41699 34.167 6.83366 37.5837 15.3753 37.5837Z" stroke="#2C4EF1" stroke-width="2" stroke-linecap="round" stroke-linejoin="round"/>
<path d="M15.3747 17.0833C17.2616 17.0833 18.7913 15.5536 18.7913 13.6667C18.7913 11.7797 17.2616 10.25 15.3747 10.25C13.4877 10.25 11.958 11.7797 11.958 13.6667C11.958 15.5536 13.4877 17.0833 15.3747 17.0833Z" stroke="#2C4EF1" stroke-width="2" stroke-linecap="round" stroke-linejoin="round"/>
<path d="M4.56152 32.3733L12.9836 26.7187C14.3332 25.8133 16.2807 25.9158 17.4936 26.9579L18.0574 27.4533C19.3899 28.5979 21.5424 28.5979 22.8749 27.4533L29.9815 21.3545C31.314 20.2099 33.4665 20.2099 34.799 21.3545L37.5836 23.7462" stroke="#2C4EF1" stroke-width="2" stroke-linecap="round" stroke-linejoin="round"/>
</svg>
