<svg width="40" height="40" viewBox="0 0 40 40" fill="none" xmlns="http://www.w3.org/2000/svg">
<circle cx="20" cy="20" r="20" fill="#EBEEFF"/>
<path d="M26.6673 20.8331C26.6673 24.9997 23.7507 27.0831 20.284 28.2914C20.1025 28.3529 19.9053 28.35 19.7257 28.2831C16.2507 27.0831 13.334 24.9997 13.334 20.8331V14.9997C13.334 14.7787 13.4218 14.5667 13.5781 14.4105C13.7343 14.2542 13.9463 14.1664 14.1673 14.1664C15.834 14.1664 17.9173 13.1664 19.3673 11.8997C19.5439 11.7489 19.7684 11.666 20.0007 11.666C20.2329 11.666 20.4574 11.7489 20.634 11.8997C22.0923 13.1747 24.1673 14.1664 25.834 14.1664C26.055 14.1664 26.267 14.2542 26.4232 14.4105C26.5795 14.5667 26.6673 14.7787 26.6673 14.9997V20.8331Z" stroke="#3D5EFF" stroke-width="1.66667" stroke-linecap="round" stroke-linejoin="round"/>
</svg>
