<svg width="41" height="41" viewBox="0 0 41 41" fill="none" xmlns="http://www.w3.org/2000/svg">
<circle cx="20.0467" cy="20.0467" r="20.0467" fill="#EBEEFF"/>
<path d="M26.5499 11.8617H25.9071V11.2022C25.9071 10.8371 25.6411 10.5237 25.2951 10.5054C25.2082 10.501 25.1213 10.5153 25.0398 10.5473C24.9583 10.5794 24.8837 10.6286 24.8207 10.692C24.7577 10.7553 24.7076 10.8315 24.6733 10.916C24.639 11.0004 24.6213 11.0913 24.6213 11.1832V11.8617H15.6213V11.2022C15.6213 10.8371 15.3554 10.5237 15.0094 10.5054C14.9225 10.501 14.8356 10.5153 14.7541 10.5473C14.6725 10.5794 14.598 10.6286 14.535 10.692C14.472 10.7553 14.4219 10.8315 14.3876 10.916C14.3533 11.0004 14.3356 11.0913 14.3356 11.1832V11.8617H13.6928C13.0108 11.8617 12.3567 12.1477 11.8745 12.6567C11.3923 13.1658 11.1213 13.8561 11.1213 14.576V15.0849C11.1213 15.1299 11.1383 15.1731 11.1684 15.2049C11.1985 15.2367 11.2394 15.2546 11.2821 15.2546H28.9606C29.0032 15.2546 29.0441 15.2367 29.0743 15.2049C29.1044 15.1731 29.1213 15.1299 29.1213 15.0849V14.576C29.1213 13.8561 28.8504 13.1658 28.3682 12.6567C27.8859 12.1477 27.2319 11.8617 26.5499 11.8617ZM29.0008 16.6117H11.2419C11.2099 16.6117 11.1792 16.6251 11.1566 16.649C11.134 16.6729 11.1213 16.7052 11.1213 16.739V26.7903C11.1213 27.5102 11.3923 28.2006 11.8745 28.7096C12.3567 29.2187 13.0108 29.5046 13.6928 29.5046H26.5499C27.2319 29.5046 27.8859 29.2187 28.3682 28.7096C28.8504 28.2006 29.1213 27.5102 29.1213 26.7903V16.739C29.1213 16.7052 29.1086 16.6729 29.086 16.649C29.0634 16.6251 29.0328 16.6117 29.0008 16.6117ZM18.8356 22.1858C18.8356 22.5072 18.7147 22.8154 18.4994 23.0426C18.2841 23.2698 17.9922 23.3975 17.6877 23.3975H14.8407C14.5362 23.3975 14.2443 23.2698 14.029 23.0426C13.8137 22.8154 13.6928 22.5072 13.6928 22.1858V19.1806C13.6928 18.8592 13.8137 18.551 14.029 18.3238C14.2443 18.0965 14.5362 17.9689 14.8407 17.9689H17.6877C17.9922 17.9689 18.2841 18.0965 18.4994 18.3238C18.7147 18.551 18.8356 18.8592 18.8356 19.1806V22.1858Z" fill="#3D5EFF"/>
</svg>
