<svg width="40" height="40" viewBox="0 0 40 40" fill="none" xmlns="http://www.w3.org/2000/svg">
<circle cx="20" cy="20" r="20" fill="#EBEEFF"/>
<path d="M12.9997 22.0001C12.843 22.0007 12.1323 22.0853 11.9997 22.0001C11.867 21.9149 12.0673 22.1447 11.9997 22.0001C11.932 21.8556 11.9813 21.1592 11.9997 21.0001C12.018 20.841 11.901 21.1246 11.9997 21.0001L19.9997 12.0001C20.0611 11.9276 20.9073 12.0176 20.9997 12.0001C21.092 11.9827 20.9169 11.9548 20.9997 12.0001C21.0824 12.0454 20.9626 11.9119 20.9997 12.0001C21.0367 12.0884 21.0246 12.9075 20.9997 13.0001L19.9997 18.0001C19.9528 18.1284 19.9829 17.8642 19.9997 18.0001C20.0164 18.136 19.9231 17.8877 19.9997 18.0001C20.0762 18.1125 19.8809 18.9369 19.9997 19.0001C20.1184 19.0633 19.8657 19.0006 19.9997 19.0001H25.9997C26.1563 18.9996 26.867 18.9149 26.9997 19.0001C27.1323 19.0853 26.932 18.8556 26.9997 19.0001C27.0673 19.1447 27.018 19.841 26.9997 20.0001C26.9813 20.1592 27.0983 19.8757 26.9997 20.0001L18.9997 29.0001C18.9382 29.0727 18.092 28.9827 17.9997 29.0001C17.9073 29.0176 18.0824 29.0454 17.9997 29.0001C17.9169 28.9548 18.0367 29.0884 17.9997 29.0001C17.9626 28.9119 17.9748 28.0927 17.9997 28.0001L18.9997 23.0001C19.0465 22.8718 19.0164 23.136 18.9997 23.0001C18.9829 22.8642 19.0762 23.1125 18.9997 23.0001C18.9231 22.8877 19.1184 22.0633 18.9997 22.0001C18.8809 21.9369 19.1336 21.9997 18.9997 22.0001H12.9997Z" stroke="#3D5EFF" stroke-width="1.66667" stroke-linecap="round" stroke-linejoin="round"/>
</svg>
