<svg width="40" height="40" viewBox="0 0 40 40" fill="none" xmlns="http://www.w3.org/2000/svg">
<circle cx="20" cy="20" r="20" fill="#EBEEFF"/>
<path d="M28.3327 20.0003H26.266C25.9018 19.9995 25.5474 20.1181 25.2569 20.3378C24.9665 20.5575 24.756 20.8663 24.6577 21.217L22.6993 28.1837C22.6867 28.2269 22.6604 28.2649 22.6243 28.292C22.5883 28.319 22.5444 28.3337 22.4993 28.3337C22.4543 28.3337 22.4104 28.319 22.3743 28.292C22.3383 28.2649 22.312 28.2269 22.2993 28.1837L17.6993 11.817C17.6867 11.7737 17.6604 11.7357 17.6243 11.7087C17.5883 11.6816 17.5444 11.667 17.4993 11.667C17.4543 11.667 17.4104 11.6816 17.3743 11.7087C17.3383 11.7357 17.312 11.7737 17.2993 11.817L15.341 18.7837C15.2431 19.133 15.0338 19.4408 14.7451 19.6603C14.4563 19.8799 14.1038 19.9993 13.741 20.0003H11.666" stroke="#3D5EFF" stroke-width="1.66667" stroke-linecap="round" stroke-linejoin="round"/>
</svg>
