<svg width="23" height="26" viewBox="0 0 23 26" fill="none" xmlns="http://www.w3.org/2000/svg">
<path d="M15.8125 13H12.9375V10.1111C12.9375 9.72802 12.786 9.36062 12.5165 9.08974C12.2469 8.81885 11.8812 8.66667 11.5 8.66667C11.1188 8.66667 10.7531 8.81885 10.4835 9.08974C10.214 9.36062 10.0625 9.72802 10.0625 10.1111V13H7.1875C6.80625 13 6.44062 13.1522 6.17103 13.4231C5.90145 13.694 5.75 14.0614 5.75 14.4444C5.75 14.8275 5.90145 15.1949 6.17103 15.4658C6.44062 15.7367 6.80625 15.8889 7.1875 15.8889H10.0625V18.7778C10.0625 19.1609 10.214 19.5283 10.4835 19.7992C10.7531 20.07 11.1188 20.2222 11.5 20.2222C11.8812 20.2222 12.2469 20.07 12.5165 19.7992C12.786 19.5283 12.9375 19.1609 12.9375 18.7778V15.8889H15.8125C16.1937 15.8889 16.5594 15.7367 16.829 15.4658C17.0985 15.1949 17.25 14.8275 17.25 14.4444C17.25 14.0614 17.0985 13.694 16.829 13.4231C16.5594 13.1522 16.1937 13 15.8125 13ZM22.5788 6.201L16.8288 0.423222C16.5593 0.152318 16.1937 8.18096e-05 15.8125 0H4.3125C1.93487 0 0 1.94422 0 4.33333V21.6667C0 24.0558 1.93487 26 4.3125 26H18.6875C21.0651 26 23 24.0558 23 21.6667V7.22222C22.9999 6.83916 22.8484 6.47182 22.5788 6.201ZM19.5299 7.22222H17.9688C16.7799 7.22222 15.8125 6.25011 15.8125 5.05556V3.48689L19.5299 7.22222ZM18.6875 23.1111H4.3125C3.93125 23.1111 3.56562 22.9589 3.29603 22.688C3.02645 22.4172 2.875 22.0498 2.875 21.6667V4.33333C2.875 3.95024 3.02645 3.58284 3.29603 3.31196C3.56562 3.04107 3.93125 2.88889 4.3125 2.88889H14.375V5.05556C14.375 7.04744 15.9864 8.66667 17.9688 8.66667H20.125V21.6667C20.125 22.0498 19.9736 22.4172 19.704 22.688C19.4344 22.9589 19.0687 23.1111 18.6875 23.1111Z" fill="white"/>
</svg>
