<svg width="40" height="40" viewBox="0 0 40 40" fill="none" xmlns="http://www.w3.org/2000/svg">
<circle cx="20" cy="20" r="20" fill="#EBEEFF"/>
<path d="M19.9993 28.3337C24.6017 28.3337 28.3327 24.6027 28.3327 20.0003C28.3327 15.398 24.6017 11.667 19.9993 11.667C15.397 11.667 11.666 15.398 11.666 20.0003C11.666 24.6027 15.397 28.3337 19.9993 28.3337Z" stroke="#3D5EFF" stroke-width="1.66667" stroke-linecap="round" stroke-linejoin="round"/>
<path d="M20 25C22.7614 25 25 22.7614 25 20C25 17.2386 22.7614 15 20 15C17.2386 15 15 17.2386 15 20C15 22.7614 17.2386 25 20 25Z" stroke="#3D5EFF" stroke-width="1.66667" stroke-linecap="round" stroke-linejoin="round"/>
<path d="M20.0007 21.6663C20.9211 21.6663 21.6673 20.9201 21.6673 19.9997C21.6673 19.0792 20.9211 18.333 20.0007 18.333C19.0802 18.333 18.334 19.0792 18.334 19.9997C18.334 20.9201 19.0802 21.6663 20.0007 21.6663Z" stroke="#3D5EFF" stroke-width="1.66667" stroke-linecap="round" stroke-linejoin="round"/>
</svg>
