<svg width="41" height="41" viewBox="0 0 41 41" fill="none" xmlns="http://www.w3.org/2000/svg">
<circle cx="20.0467" cy="20.0467" r="20.0467" fill="#EBEEFF"/>
<path d="M20.1211 10.5044V30.5044" stroke="#3D5EFF" stroke-width="2" stroke-linecap="round" stroke-linejoin="round"/>
<path d="M25.1211 13.5044H17.6211C16.6928 13.5044 15.8026 13.8731 15.1462 14.5295C14.4898 15.1859 14.1211 16.0761 14.1211 17.0044C14.1211 17.9327 14.4898 18.8229 15.1462 19.4793C15.8026 20.1356 16.6928 20.5044 17.6211 20.5044H22.6211C23.5494 20.5044 24.4396 20.8731 25.096 21.5295C25.7523 22.1859 26.1211 23.0761 26.1211 24.0044C26.1211 24.9327 25.7523 25.8229 25.096 26.4793C24.4396 27.1356 23.5494 27.5044 22.6211 27.5044H14.1211" stroke="#3D5EFF" stroke-width="2" stroke-linecap="round" stroke-linejoin="round"/>
</svg>
