<svg width="22" height="22" viewBox="0 0 22 22" fill="none" xmlns="http://www.w3.org/2000/svg">
<path d="M0.338473 10.8324C0.427371 10.899 0.52853 10.9475 0.636176 10.9751C0.743822 11.0027 0.855845 11.0088 0.96585 10.9931C1.07586 10.9774 1.18169 10.9402 1.27731 10.8835C1.37292 10.8269 1.45645 10.7521 1.52313 10.6632C2.03545 9.9802 2.69979 9.42586 3.46352 9.04406C4.22725 8.66227 5.0694 8.4635 5.92328 8.4635C6.77715 8.4635 7.6193 8.66227 8.38303 9.04406C9.14676 9.42586 9.8111 9.9802 10.3234 10.6632C10.4582 10.8425 10.6588 10.961 10.8809 10.9925C11.1031 11.024 11.3287 10.9661 11.5081 10.8313C11.5721 10.7838 11.6287 10.7272 11.6763 10.6632C12.1886 9.9802 12.8529 9.42586 13.6166 9.04406C14.3804 8.66227 15.2225 8.4635 16.0764 8.4635C16.9303 8.4635 17.7724 8.66227 18.5362 9.04406C19.2999 9.42586 19.9642 9.9802 20.4766 10.6632C20.6113 10.8427 20.8119 10.9613 21.0342 10.9929C21.2565 11.0246 21.4822 10.9666 21.6617 10.8319C21.8413 10.6971 21.9599 10.4965 21.9916 10.2743C22.0232 10.0521 21.9652 9.82639 21.8304 9.64688C21.0814 8.64293 20.0826 7.85248 18.9333 7.35414C19.5634 6.77899 20.0048 6.02681 20.1997 5.19634C20.3946 4.36586 20.3338 3.49588 20.0253 2.70057C19.7168 1.90526 19.175 1.22178 18.471 0.73984C17.7671 0.257895 16.9338 0 16.0806 0C15.2275 0 14.3942 0.257895 13.6902 0.73984C12.9863 1.22178 12.4445 1.90526 12.136 2.70057C11.8275 3.49588 11.7667 4.36586 11.9616 5.19634C12.1564 6.02681 12.5979 6.77899 13.2279 7.35414C12.3981 7.71298 11.6443 8.22658 11.0067 8.86748C10.3691 8.22658 9.6153 7.71298 8.78549 7.35414C9.41556 6.77899 9.857 6.02681 10.0519 5.19634C10.2467 4.36586 10.1859 3.49588 9.87743 2.70057C9.56893 1.90526 9.02714 1.22178 8.32318 0.73984C7.61922 0.257895 6.78597 0 5.93279 0C5.07962 0 4.24637 0.257895 3.54241 0.73984C2.83845 1.22178 2.29666 1.90526 1.98816 2.70057C1.67966 3.49588 1.61885 4.36586 1.81372 5.19634C2.00859 6.02681 2.45003 6.77899 3.0801 7.35414C1.9258 7.85095 0.922093 8.64188 0.169237 9.64794C0.102563 9.73682 0.0540523 9.83797 0.0264739 9.94559C-0.00110454 10.0532 -0.00721045 10.1652 0.00850461 10.2752C0.0242197 10.3852 0.0614481 10.491 0.118064 10.5866C0.17468 10.6822 0.249575 10.7657 0.338473 10.8324ZM16.0775 1.69525C16.5795 1.69525 17.0703 1.84411 17.4878 2.12299C17.9053 2.40188 18.2306 2.79828 18.4228 3.26206C18.6149 3.72583 18.6652 4.23616 18.5672 4.7285C18.4693 5.22084 18.2275 5.67309 17.8725 6.02805C17.5175 6.383 17.0651 6.62473 16.5727 6.72267C16.0803 6.8206 15.5699 6.77034 15.106 6.57824C14.6421 6.38613 14.2457 6.06082 13.9667 5.64343C13.6878 5.22604 13.5389 4.73533 13.5389 4.23334C13.5389 3.5602 13.8064 2.91462 14.2824 2.43864C14.7585 1.96265 15.4042 1.69525 16.0775 1.69525ZM5.92328 1.69525C6.42535 1.69525 6.91615 1.84411 7.33362 2.12299C7.75108 2.40188 8.07645 2.79828 8.26859 3.26206C8.46072 3.72583 8.511 4.23616 8.41304 4.7285C8.31509 5.22084 8.07332 5.67309 7.7183 6.02805C7.36328 6.383 6.91095 6.62473 6.41852 6.72267C5.92609 6.8206 5.41567 6.77034 4.95182 6.57824C4.48796 6.38613 4.09149 6.06082 3.81255 5.64343C3.53361 5.22604 3.38473 4.73533 3.38473 4.23334C3.38473 3.5602 3.65218 2.91462 4.12825 2.43864C4.60432 1.96265 5.25001 1.69525 5.92328 1.69525ZM18.9333 18.3525C19.5634 17.7774 20.0048 17.0252 20.1997 16.1947C20.3946 15.3643 20.3338 14.4943 20.0253 13.699C19.7168 12.9037 19.175 12.2202 18.471 11.7382C17.7671 11.2563 16.9338 10.9984 16.0806 10.9984C15.2275 10.9984 14.3942 11.2563 13.6902 11.7382C12.9863 12.2202 12.4445 12.9037 12.136 13.699C11.8275 14.4943 11.7667 15.3643 11.9616 16.1947C12.1564 17.0252 12.5979 17.7774 13.2279 18.3525C12.3981 18.7114 11.6443 19.225 11.0067 19.8659C10.3691 19.225 9.6153 18.7114 8.78549 18.3525C9.41556 17.7774 9.857 17.0252 10.0519 16.1947C10.2467 15.3643 10.1859 14.4943 9.87743 13.699C9.56893 12.9037 9.02714 12.2202 8.32318 11.7382C7.61922 11.2563 6.78597 10.9984 5.93279 10.9984C5.07962 10.9984 4.24637 11.2563 3.54241 11.7382C2.83845 12.2202 2.29666 12.9037 1.98816 13.699C1.67966 14.4943 1.61885 15.3643 1.81372 16.1947C2.00859 17.0252 2.45003 17.7774 3.0801 18.3525C1.9258 18.8493 0.922093 19.6403 0.169237 20.6463C0.102563 20.7352 0.0540523 20.8364 0.0264739 20.944C-0.00110454 21.0516 -0.00721045 21.1636 0.00850461 21.2736C0.0242197 21.3836 0.0614481 21.4894 0.118064 21.585C0.17468 21.6806 0.249575 21.7641 0.338473 21.8308C0.427371 21.8975 0.52853 21.946 0.636176 21.9735C0.743822 22.0011 0.855845 22.0072 0.96585 21.9915C1.07586 21.9758 1.18169 21.9386 1.27731 21.882C1.37292 21.8253 1.45645 21.7505 1.52313 21.6616C2.03545 20.9786 2.69979 20.4243 3.46352 20.0425C4.22725 19.6607 5.0694 19.4619 5.92328 19.4619C6.77715 19.4619 7.6193 19.6607 8.38303 20.0425C9.14676 20.4243 9.8111 20.9786 10.3234 21.6616C10.4582 21.8409 10.6588 21.9594 10.8809 21.9909C11.1031 22.0225 11.3287 21.9645 11.5081 21.8297C11.5721 21.7822 11.6287 21.7256 11.6763 21.6616C12.1886 20.9786 12.8529 20.4243 13.6166 20.0425C14.3804 19.6607 15.2225 19.4619 16.0764 19.4619C16.9303 19.4619 17.7724 19.6607 18.5362 20.0425C19.2999 20.4243 19.9642 20.9786 20.4766 21.6616C20.6113 21.8411 20.8119 21.9597 21.0342 21.9913C21.2565 22.023 21.4822 21.965 21.6617 21.8303C21.8413 21.6955 21.9599 21.4949 21.9916 21.2727C22.0232 21.0505 21.9652 20.8248 21.8304 20.6453C21.0814 19.6413 20.0826 18.8509 18.9333 18.3525ZM5.92328 12.6937C6.42535 12.6937 6.91615 12.8425 7.33362 13.1214C7.75108 13.4003 8.07645 13.7967 8.26859 14.2605C8.46072 14.7242 8.511 15.2346 8.41304 15.7269C8.31509 16.2192 8.07332 16.6715 7.7183 17.0265C7.36328 17.3814 6.91095 17.6231 6.41852 17.7211C5.92609 17.819 5.41567 17.7687 4.95182 17.5766C4.48796 17.3845 4.09149 17.0592 3.81255 16.6418C3.53361 16.2244 3.38473 15.7337 3.38473 15.2317C3.38473 14.5586 3.65218 13.913 4.12825 13.437C4.60432 12.9611 5.25001 12.6937 5.92328 12.6937ZM16.0775 12.6937C16.5795 12.6937 17.0703 12.8425 17.4878 13.1214C17.9053 13.4003 18.2306 13.7967 18.4228 14.2605C18.6149 14.7242 18.6652 15.2346 18.5672 15.7269C18.4693 16.2192 18.2275 16.6715 17.8725 17.0265C17.5175 17.3814 17.0651 17.6231 16.5727 17.7211C16.0803 17.819 15.5699 17.7687 15.106 17.5766C14.6421 17.3845 14.2457 17.0592 13.9667 16.6418C13.6878 16.2244 13.5389 15.7337 13.5389 15.2317C13.5389 14.5586 13.8064 13.913 14.2824 13.437C14.7585 12.9611 15.4042 12.6937 16.0775 12.6937Z" fill="black"/>
</svg>
